<svg xmlns="http://www.w3.org/2000/svg" viewBox="0 0 920 720" role="img" aria-labelledby="title desc">
  <title id="title">Syntrae founder portrait</title>
  <desc id="desc">A polished 3D-style smiling founder portrait with glasses, short dark hair, and a professional gray top.</desc>
  <defs>
    <radialGradient id="bgGlow" cx="24%" cy="20%" r="82%">
      <stop offset="0%" stop-color="#ffffff"/>
      <stop offset="48%" stop-color="#f2fff8"/>
      <stop offset="100%" stop-color="#e0f4ee"/>
    </radialGradient>
    <linearGradient id="skin" x1="0" y1="0" x2="0.9" y2="1">
      <stop offset="0%" stop-color="#f0bc91"/>
      <stop offset="52%" stop-color="#d99570"/>
      <stop offset="100%" stop-color="#b96f56"/>
    </linearGradient>
    <linearGradient id="hair" x1="0" y1="0" x2="1" y2="1">
      <stop offset="0%" stop-color="#1f2529"/>
      <stop offset="100%" stop-color="#111619"/>
    </linearGradient>
    <linearGradient id="shirt" x1="0" y1="0" x2="1" y2="1">
      <stop offset="0%" stop-color="#5a6668"/>
      <stop offset="100%" stop-color="#303b3e"/>
    </linearGradient>
    <linearGradient id="jacket" x1="0" y1="0" x2="1" y2="1">
      <stop offset="0%" stop-color="#274f4a"/>
      <stop offset="100%" stop-color="#173631"/>
    </linearGradient>
    <filter id="softDrop" x="-20%" y="-20%" width="140%" height="140%">
      <feDropShadow dx="0" dy="28" stdDeviation="22" flood-color="#173631" flood-opacity="0.24"/>
      <feDropShadow dx="0" dy="-8" stdDeviation="14" flood-color="#ffffff" flood-opacity="0.35"/>
    </filter>
    <filter id="blurSoft" x="-20%" y="-20%" width="140%" height="140%">
      <feGaussianBlur stdDeviation="10"/>
    </filter>
  </defs>

  <rect width="920" height="720" rx="48" fill="url(#bgGlow)"/>
  <circle cx="150" cy="128" r="56" fill="#c9eee4"/>
  <circle cx="782" cy="126" r="96" fill="#f5d675" opacity="0.42"/>
  <circle cx="754" cy="610" r="132" fill="#dcf4ed" opacity="0.62"/>
  <path d="M94 560c122-104 288-154 464-146 114 5 209 34 286 87" fill="none" stroke="#b5dfd4" stroke-width="4" opacity="0.72"/>
  <path d="M90 608c142-112 296-157 458-135 122 17 225 61 309 134" fill="none" stroke="#f4cf78" stroke-width="4" opacity="0.38"/>

  <g filter="url(#softDrop)">
    <ellipse cx="465" cy="648" rx="240" ry="34" fill="#173631" opacity="0.16"/>
    <path d="M240 700c16-126 109-204 229-204 122 0 213 78 229 204H240z" fill="url(#jacket)"/>
    <path d="M338 700c9-91 60-145 130-145 73 0 125 54 134 145H338z" fill="url(#shirt)"/>
    <path d="M395 501c10 51 39 82 75 82 38 0 67-32 76-82H395z" fill="url(#skin)"/>
    <path d="M394 520c18 28 45 42 77 42 31 0 57-14 75-42-7 54-35 91-76 91-40 0-69-37-76-91z" fill="#a85f49" opacity="0.12"/>

    <path d="M276 251c2-118 75-197 195-197 120 0 191 79 193 197l-16 139c-16 111-84 178-177 178-94 0-161-67-178-178l-17-139z" fill="url(#skin)"/>
    <ellipse cx="287" cy="342" rx="32" ry="48" fill="#c57c5f"/>
    <ellipse cx="652" cy="342" rx="32" ry="48" fill="#c57c5f"/>
    <ellipse cx="350" cy="381" rx="42" ry="22" fill="#e98f77" opacity="0.34"/>
    <ellipse cx="589" cy="381" rx="42" ry="22" fill="#e98f77" opacity="0.34"/>

    <path d="M270 236c7-124 96-210 211-210 96 0 166 50 191 135 14 48 5 95-4 127-29-74-96-126-195-138-65-8-139 14-203 86z" fill="url(#hair)"/>
    <path d="M294 247c80-68 199-78 297-33 28 13 51 29 73 52-8-80-72-151-182-161-104-9-186 49-188 142z" fill="#111619" opacity="0.72"/>
    <path d="M284 232c64-48 137-68 219-58 61 8 118 30 158 70-26-60-86-106-169-113-95-8-171 27-208 101z" fill="#293134" opacity="0.5"/>

    <path d="M347 316c27-22 65-22 91 0" fill="none" stroke="#162125" stroke-width="12" stroke-linecap="round"/>
    <path d="M503 316c27-22 65-22 91 0" fill="none" stroke="#162125" stroke-width="12" stroke-linecap="round"/>
    <ellipse cx="392" cy="341" rx="9" ry="11" fill="#172125"/>
    <ellipse cx="548" cy="341" rx="9" ry="11" fill="#172125"/>

    <g fill="none" stroke="#172125" stroke-linecap="round" stroke-linejoin="round">
      <rect x="317" y="303" width="124" height="82" rx="24" stroke-width="12" opacity="0.9"/>
      <rect x="499" y="303" width="124" height="82" rx="24" stroke-width="12" opacity="0.9"/>
      <path d="M442 342c20-13 38-13 57 0" stroke-width="9"/>
      <path d="M309 328l-36-16" stroke-width="8"/>
      <path d="M631 328l36-16" stroke-width="8"/>
    </g>
    <path d="M373 319c31-12 54-9 69 4" fill="none" stroke="#fff" stroke-width="7" opacity="0.34"/>
    <path d="M525 319c31-12 54-9 69 4" fill="none" stroke="#fff" stroke-width="7" opacity="0.34"/>

    <path d="M468 338c-8 36-14 64-32 86 18 12 43 12 65 1" fill="none" stroke="#a65c46" stroke-width="9" stroke-linecap="round" opacity="0.32"/>
    <path d="M392 455c39 48 118 48 157 0" fill="none" stroke="#6d332d" stroke-width="14" stroke-linecap="round"/>
    <path d="M413 461c35 22 77 22 113 0" fill="none" stroke="#fff1df" stroke-width="8" stroke-linecap="round"/>
  </g>

  <g opacity="0.84">
    <rect x="662" y="210" width="122" height="74" rx="22" fill="#fff" opacity="0.9"/>
    <circle cx="697" cy="247" r="14" fill="#12968d"/>
    <path d="M720 245h34" stroke="#d9e9e1" stroke-width="8" stroke-linecap="round"/>
    <rect x="116" y="218" width="134" height="78" rx="24" fill="#fff" opacity="0.88"/>
    <circle cx="155" cy="257" r="14" fill="#f3c94f"/>
    <path d="M179 254h38" stroke="#d9e9e1" stroke-width="8" stroke-linecap="round"/>
  </g>
</svg>
