<svg xmlns="http://www.w3.org/2000/svg" viewBox="0 0 1200 760" role="img" aria-labelledby="title desc">
  <title id="title">Founding survey signal abstract</title>
  <desc id="desc">A warm abstract illustration of feedback signals becoming a product direction.</desc>
  <defs>
    <linearGradient id="surveyBg" x1="0" y1="0" x2="1" y2="1">
      <stop offset="0" stop-color="#f8fff9"/>
      <stop offset="0.54" stop-color="#fffdf5"/>
      <stop offset="1" stop-color="#fff4df"/>
    </linearGradient>
    <linearGradient id="surveyPath" x1="0" y1="0" x2="1" y2="0">
      <stop offset="0" stop-color="#2d7d67"/>
      <stop offset="0.48" stop-color="#12968d"/>
      <stop offset="1" stop-color="#f3c94f"/>
    </linearGradient>
    <filter id="surveyShadow" x="-20%" y="-20%" width="140%" height="140%">
      <feDropShadow dx="0" dy="18" stdDeviation="18" flood-color="#203236" flood-opacity="0.13"/>
    </filter>
  </defs>
  <rect width="1200" height="760" rx="44" fill="url(#surveyBg)"/>
  <circle cx="196" cy="574" r="156" fill="#dff4ed" opacity="0.72"/>
  <circle cx="1010" cy="152" r="136" fill="#f3c94f" opacity="0.23"/>
  <path d="M158 492c108-110 221-145 340-105 86 29 139 94 231 92 96-2 196-62 310-154" fill="none" stroke="url(#surveyPath)" stroke-width="18" stroke-linecap="round" opacity="0.25"/>
  <path d="M176 568c132-67 260-73 385-17 87 39 169 44 247 15 66-25 126-70 181-136" fill="none" stroke="#2d7d67" stroke-width="7" stroke-linecap="round" opacity="0.16"/>
  <g filter="url(#surveyShadow)">
    <rect x="176" y="178" width="250" height="168" rx="36" fill="#fffef9"/>
    <rect x="475" y="118" width="250" height="228" rx="36" fill="#fffef9"/>
    <rect x="774" y="178" width="250" height="168" rx="36" fill="#fffef9"/>
    <circle cx="250" cy="258" r="36" fill="#2d7d67"/>
    <circle cx="600" cy="218" r="44" fill="#12968d"/>
    <circle cx="950" cy="258" r="36" fill="#f3c94f"/>
    <rect x="304" y="238" width="82" height="12" rx="6" fill="#203236" opacity="0.12"/>
    <rect x="304" y="272" width="58" height="12" rx="6" fill="#203236" opacity="0.10"/>
    <rect x="552" y="302" width="96" height="12" rx="6" fill="#203236" opacity="0.12"/>
    <rect x="564" y="336" width="72" height="12" rx="6" fill="#203236" opacity="0.10"/>
    <rect x="814" y="238" width="82" height="12" rx="6" fill="#203236" opacity="0.12"/>
    <rect x="838" y="272" width="58" height="12" rx="6" fill="#203236" opacity="0.10"/>
  </g>
  <g filter="url(#surveyShadow)">
    <rect x="338" y="496" width="524" height="120" rx="60" fill="#fffef9"/>
    <path d="M424 556h352" stroke="#203236" stroke-width="10" stroke-linecap="round" opacity="0.11"/>
    <circle cx="424" cy="556" r="30" fill="#2d7d67"/>
    <circle cx="600" cy="556" r="30" fill="#12968d"/>
    <circle cx="776" cy="556" r="30" fill="#f3c94f"/>
    <path d="M411 557l13 13 27-33M587 557l13 13 27-33M763 557l13 13 27-33" fill="none" stroke="#fffef9" stroke-width="8" stroke-linecap="round" stroke-linejoin="round"/>
  </g>
</svg>
